<svg xmlns="http://www.w3.org/2000/svg" viewBox="0 0 1200 760" role="img" aria-labelledby="title desc">
  <title id="title">ASAP Auto Electrics workshop placeholder</title>
  <desc id="desc">Bright workshop-style placeholder illustration using ASAP brand colours.</desc>
  <defs>
    <linearGradient id="bg" x1="0" y1="0" x2="1" y2="1">
      <stop offset="0" stop-color="#ffffff"/>
      <stop offset="0.56" stop-color="#eef8fb"/>
      <stop offset="1" stop-color="#edf0ff"/>
    </linearGradient>
    <linearGradient id="car" x1="0" y1="0" x2="1" y2="1">
      <stop offset="0" stop-color="#ffffff"/>
      <stop offset="0.55" stop-color="#dbeafe"/>
      <stop offset="1" stop-color="#c7d2fe"/>
    </linearGradient>
    <filter id="shadow" x="-20%" y="-20%" width="140%" height="140%">
      <feDropShadow dx="0" dy="24" stdDeviation="22" flood-color="#0f172a" flood-opacity="0.18"/>
    </filter>
  </defs>
  <rect width="1200" height="760" fill="url(#bg)"/>
  <path d="M0 0h1200v74H0z" fill="#2905A1" opacity=".06"/>
  <path d="M0 0h380v12H0z" fill="#ED2E38"/>
  <path d="M380 0h420v12H380z" fill="#00A6D6"/>
  <path d="M800 0h400v12H800z" fill="#2905A1"/>
  <g opacity=".38" stroke="#00A6D6" stroke-width="2">
    <path d="M70 640h1050M120 570h940M180 500h820"/>
    <path d="M260 455l-90 185M425 455l-35 185M600 455v185M775 455l35 185M940 455l90 185"/>
  </g>
  <g transform="translate(130 185)" filter="url(#shadow)">
    <path d="M110 290h730c36 0 65-29 65-65v-60c0-38-31-69-69-69H665l-82-72c-20-17-45-26-71-26H304c-34 0-66 16-86 43l-78 105H98c-43 0-78 35-78 78v1c0 36 29 65 65 65h25z" fill="url(#car)" stroke="#cbd5e1" stroke-width="4"/>
    <path d="M246 142l58-78h204c15 0 30 5 42 15l73 63H246z" fill="#ffffff" stroke="#93c5fd" stroke-width="4"/>
    <path d="M648 142h174c23 0 42 19 42 42v18H700c-30 0-54-24-54-54 0-3 1-5 2-6z" fill="#e0f7ff" stroke="#93c5fd" stroke-width="4"/>
    <circle cx="230" cy="288" r="68" fill="#0f172a"/>
    <circle cx="230" cy="288" r="36" fill="#e2e8f0"/>
    <circle cx="745" cy="288" r="68" fill="#0f172a"/>
    <circle cx="745" cy="288" r="36" fill="#e2e8f0"/>
    <path d="M152 198h226M410 198h318" stroke="#00A6D6" stroke-width="8" stroke-linecap="round"/>
    <path d="M820 230h84" stroke="#ED2E38" stroke-width="10" stroke-linecap="round"/>
  </g>
  <g transform="translate(765 315)" filter="url(#shadow)">
    <rect x="0" y="0" width="235" height="150" rx="22" fill="#ffffff" stroke="#00A6D6" stroke-width="5"/>
    <rect x="28" y="28" width="179" height="64" rx="12" fill="#ecfeff"/>
    <path d="M54 118h128" stroke="#2905A1" stroke-width="10" stroke-linecap="round"/>
    <path d="M62 58h44m28 0h38" stroke="#00A6D6" stroke-width="8" stroke-linecap="round"/>
  </g>
  <g transform="translate(82 95)">
    <rect width="330" height="96" rx="16" fill="#ffffff" stroke="#e2e8f0"/>
    <text x="28" y="41" font-family="Arial, Helvetica, sans-serif" font-size="22" font-weight="700" fill="#2905A1">Placeholder workshop image</text>
    <text x="28" y="70" font-family="Arial, Helvetica, sans-serif" font-size="18" fill="#475569">Replace with real ASAP photography</text>
  </g>
</svg>
